<svg width="206" height="99" viewBox="0 0 206 99" fill="none" xmlns="http://www.w3.org/2000/svg">
<path d="M2 12.3451C9.73203 29.375 15.4643 47.0531 20.7144 64.9717C21.6605 68.2008 25.3464 77.2701 25.411 73.9055C25.5553 66.3936 28.2668 59.2223 30.1077 51.9868C33.2745 39.5397 36.256 27.0718 42.319 15.6365C44.1821 12.1226 47.9668 4.67038 52.3987 3.08575C52.8312 2.93112 52.2491 3.45085 52.2181 3.51978C51.5978 4.89977 51.383 6.79971 50.9897 8.22181C45.5364 27.9431 39.2852 47.6086 35.2379 67.6844C34.8912 69.404 34.0514 72.0868 36.2133 70.1801C41.0524 65.9122 46.2402 62.2047 51.2426 58.1356C55.6601 54.5423 60.7539 50.4308 62.2617 44.6444C62.7477 42.7792 62.1357 42.3506 60.9972 44.1742C57.0366 50.5184 53.5301 62.3814 54.8193 69.9269C55.3675 73.1355 59.1791 65.0061 60.6721 62.1143C61.022 61.4365 66.1078 48.8039 66.7416 48.8039C67.0512 48.8039 66.605 49.4088 66.5248 49.7082C66.0169 51.6034 65.6885 52.6104 65.1158 54.591C64.3669 57.181 63.5116 59.5309 64.5016 62.1504C64.7334 62.7638 65.649 65.6024 66.4526 65.8036C68.2458 66.2524 72.3477 55.2687 72.4859 54.9527C74.0811 51.3058 75.3639 47.3818 77.1465 43.8125C78.3927 41.3173 75.8567 49.2439 75.051 51.9145C73.6921 56.419 72.2641 60.906 70.5712 65.2972C70.3143 65.9634 70.8076 63.8856 71.0047 63.1994C75.6243 47.1128 77.4617 31.6665 78.4471 14.9855C78.4875 14.3014 80.4696 3.36406 79.5309 2.29002C78.2716 0.849088 76.877 5.15508 76.1349 6.91971C69.7133 22.1885 71.9907 41.8793 73.2446 57.8463C73.4568 60.5477 73.0959 67.8177 74.9065 65.8036C77.3385 63.0983 78.6248 57.6352 80.2174 54.4463C82.3077 50.2608 84.5669 46.17 86.8288 42.0764C87.2513 41.3118 88.4298 38.9715 88.0572 39.7616C86.7297 42.5758 86.6104 42.8141 85.0224 46.6338C81.3111 55.5608 77.5921 64.5776 74.762 73.8332C74.1435 75.8559 76.3506 69.9026 77.3632 68.0461C78.7096 65.5777 80.3424 63.2877 81.7347 60.8483C81.7494 60.8226 82.6379 58.4042 82.6379 59.1484C82.6379 62.9422 81.6984 69.9375 85.8172 63.0908C95.4293 47.113 98.3804 24.3416 96.6557 6.05164C96.4424 3.79016 95.2395 0.239983 93.6932 3.80914C91.6029 8.63384 91.9189 15.2353 91.7422 20.3024C91.4513 28.6462 91.6026 36.9567 92.5371 45.2593C93.0162 49.5165 93.2475 57.7311 95.897 61.6079C95.9176 61.638 96.9447 52.4627 96.9447 50.7571C96.9447 48.773 97.5205 54.8123 98.6066 56.4718C99.6731 58.1016 102.031 58.9891 103.809 59.5824C107.181 60.7078 111.703 61.1739 115.226 61.1739C121.96 61.1739 125.64 58.8923 129.894 53.4336C135.796 45.8585 137.529 37.4427 141.274 28.8384C143.763 23.1191 147.087 17.9963 150.342 12.7068C150.969 11.6881 154.665 7.33894 151.281 7.13673C145.093 6.76687 140.01 10.6078 137.3 16.0344C131.846 26.9552 130.465 40.196 128.376 52.0592C127.472 57.1925 123.493 70.6681 127.762 67.6844C131.796 64.8646 135.071 59.6582 137.842 55.7484C141.871 50.0622 145.104 44.1076 147.885 37.7361C148.309 36.7655 149.589 32.4397 149.619 36.217C149.661 41.2592 149.618 46.5358 148.536 51.4805C147.849 54.6183 146.828 58.4366 143.442 59.6909C135.403 62.6687 124.45 58.4001 118.152 53.4336C115.158 51.0731 110.13 45.3252 110.818 40.8466C110.937 40.0684 112.423 40.9712 113.13 41.3168C120.892 45.1139 114.457 42.1491 124.655 46.9593C130.565 49.7468 136.751 53.0437 143.044 54.9527C146.227 55.9182 146.74 53.3327 147.524 50.8294C148.781 46.8158 149.124 42.8355 149.764 38.7488C150.615 33.3183 150.012 40.4082 149.836 41.8956C149.118 47.9724 147.973 54.0188 147.524 60.125C147.433 61.3686 146.903 65.4462 149.511 64.1036C157.271 60.1082 161.734 46.7782 164.504 39.1828C165.999 35.0858 166.729 32.7558 163.42 36.7957C162.086 38.4246 161.86 39.3597 161.65 41.4615C161.235 45.6194 159.433 55.6842 162.264 59.3292C163.024 60.3074 163.151 57.0119 163.493 55.8208C165.539 48.6846 168.018 41.625 171.369 34.9872C175.226 27.3451 172.364 38.6468 172.091 40.8105C171.722 43.7295 171.473 46.6682 171.224 49.5996C171.163 50.3194 170.727 52.8221 171.224 50.5401C172.506 44.6539 180.174 28.26 177.149 33.4681C175.481 36.3411 174.414 38.4583 174.042 41.8594C173.525 46.5911 171.778 57.1519 175.487 60.993C181.12 66.8263 186.674 54.6716 187.409 50.9017C188.27 46.492 188.375 41.8997 188.999 37.4467C189.09 36.8002 189.467 34.9267 189.144 35.4936C188.01 37.4794 187.921 40.0201 187.662 42.2934C186.239 54.7996 184.774 66.6446 180.943 78.716C179.015 84.7904 177.245 89.6036 172.814 94.2327C171.962 95.1221 171.186 96.9034 169.779 96.9816C168.267 97.0657 167.38 96.9294 167.286 95.1008C166.812 85.8366 176.993 80.2525 183.544 75.8225C187.683 73.0236 191.876 70.452 196.514 68.5524C199.103 67.4918 200.183 67.3111 202.656 66.5269C203.118 66.3804 204.234 66.2734 203.956 65.8759C203.423 65.1134 201.315 65.7265 200.343 64.4291" stroke="#131520" stroke-width="3" stroke-linecap="round"/>
</svg>
